<svg xmlns="http://www.w3.org/2000/svg" version="1.1" xmlns:xlink="http://www.w3.org/1999/xlink" xmlns:svgjs="http://svgjs.dev/svgjs" width="2000" height="1500" viewBox="0 0 2000 1500"><rect width="2000" height="1500" fill="#ffffff"></rect><g transform="matrix(0.75,0,0,0.75,249.090909090909,278.98548387096776)"><svg viewBox="0 0 396 248" data-background-color="#ffffff" preserveAspectRatio="xMidYMid meet" height="1252" width="2000" xmlns="http://www.w3.org/2000/svg" xmlns:xlink="http://www.w3.org/1999/xlink"><g id="tight-bounds" transform="matrix(1,0,0,1,0.2400000000000091,0.4000000000000057)"><svg viewBox="0 0 395.52 247.2" height="247.2" width="395.52"><g><svg></svg></g><g><svg viewBox="0 0 395.52 247.2" height="247.2" width="395.52"><g transform="matrix(1,0,0,1,75.54432,104.20068571428571)"><svg viewBox="0 0 244.43135999999998 38.798628571428566" height="38.798628571428566" width="244.43135999999998"><g><svg viewBox="0 0 244.43135999999998 38.798628571428566" height="38.798628571428566" width="244.43135999999998"><g><svg viewBox="0 0 244.43135999999998 38.798628571428566" height="38.798628571428566" width="244.43135999999998"><g id="textblocktransform"><svg viewBox="0 0 244.43135999999998 38.798628571428566" height="38.798628571428566" width="244.43135999999998" id="textblock"><g><svg viewBox="0 0 244.43135999999998 38.798628571428566" height="38.798628571428566" width="244.43135999999998"><g transform="matrix(1,0,0,1,0,0)"><svg width="244.43135999999998" viewBox="1.7999999999999998 -28 176.38 28" height="38.798628571428566" data-palette-color="#0068e0"><path d="M18.2-26Q18.2-24.85 18-24L18-24 12-24Q12.2-23.2 12.2-22L12.2-22Q12.2-20.85 12-20L12-20Q12.2-19.2 12.2-18L12.2-18Q12.2-16.85 12-16L12-16Q12.2-15.2 12.2-14L12.2-14Q12.2-12.85 12-12L12-12Q12.2-11.2 12.2-10L12.2-10Q12.2-8.85 12-8L12-8Q12.2-7.2 12.2-6L12.2-6Q12.2-4.85 12-4L12-4Q12.2-3.2 12.2-2L12.2-2Q12.2-0.85 12 0L12 0 8 0Q7.8-0.85 7.8-2L7.8-2Q7.8-3.2 8-4L8-4Q7.8-4.85 7.8-6L7.8-6Q7.8-7.2 8-8L8-8Q7.8-8.85 7.8-10L7.8-10Q7.8-11.2 8-12L8-12Q7.8-12.85 7.8-14L7.8-14Q7.8-15.2 8-16L8-16Q7.8-16.85 7.8-18L7.8-18Q7.8-19.2 8-20L8-20Q7.8-20.85 7.8-22L7.8-22Q7.8-23.2 8-24L8-24 2-24Q1.8-24.85 1.8-26L1.8-26Q1.8-27.2 2-28L2-28 18-28Q18.2-27.2 18.2-26L18.2-26ZM38-24Q38.2-23.2 38.2-22L38.2-22Q38.2-20.85 38-20L38-20Q38.2-19.2 38.2-18L38.2-18Q38.2-16.85 38-16L38-16Q38.2-15.2 38.2-14L38.2-14Q38.2-12.85 38-12L38-12Q38.2-11.2 38.2-10L38.2-10Q38.2-8.85 38-8L38-8Q38.2-7.2 38.2-6L38.2-6Q38.2-4.85 38-4L38-4Q38.2-3.2 38.2-2L38.2-2Q38.2-0.85 38 0L38 0 34 0Q33.8-0.85 33.8-2L33.8-2Q33.8-3.2 34-4L34-4Q33.8-4.85 33.8-6L33.8-6Q33.8-7.2 34-8L34-8Q33.8-8.85 33.8-10L33.8-10Q33.8-11.2 34-12L34-12 26-12Q26.2-11.2 26.2-10L26.2-10Q26.2-8.85 26-8L26-8Q26.2-7.2 26.2-6L26.2-6Q26.2-4.85 26-4L26-4Q26.2-3.2 26.2-2L26.2-2Q26.2-0.85 26 0L26 0 22 0Q21.8-0.85 21.8-2L21.8-2Q21.8-3.2 22-4L22-4Q21.8-4.85 21.8-6L21.8-6Q21.8-7.2 22-8L22-8Q21.8-8.85 21.8-10L21.8-10Q21.8-11.2 22-12L22-12Q21.8-12.85 21.8-14L21.8-14Q21.8-15.2 22-16L22-16Q21.8-16.85 21.8-18L21.8-18Q21.8-19.2 22-20L22-20Q21.8-20.85 21.8-22L21.8-22Q21.8-23.2 22-24L22-24Q21.8-24.85 21.8-26L21.8-26Q21.8-27.2 22-28L22-28 26-28Q26.2-27.2 26.2-26L26.2-26Q26.2-24.85 26-24L26-24Q26.2-23.2 26.2-22L26.2-22Q26.2-20.85 26-20L26-20Q26.2-19.2 26.2-18L26.2-18Q26.2-16.85 26-16L26-16 34-16Q33.8-16.85 33.8-18L33.8-18Q33.8-19.2 34-20L34-20Q33.8-20.85 33.8-22L33.8-22Q33.8-23.2 34-24L34-24Q33.8-24.85 33.8-26L33.8-26Q33.8-27.2 34-28L34-28 38-28Q38.2-27.2 38.2-26L38.2-26Q38.2-24.85 38-24L38-24ZM56.5-4L58-4Q58.2-3.2 58.2-2L58.2-2Q58.2-0.85 58 0L58 0 54 0Q53.8-0.85 53.8-2L53.8-2Q53.8-3.2 54-4L54-4 52.5-4Q52.3-4.85 52.3-6L52.3-6Q52.3-7.2 52.5-8L52.5-8 51-8Q50.8-8.85 50.8-10L50.8-10Q50.8-11.2 51-12L51-12 46-12Q46.2-11.2 46.2-10L46.2-10Q46.2-8.85 46-8L46-8Q46.2-7.2 46.2-6L46.2-6Q46.2-4.85 46-4L46-4Q46.2-3.2 46.2-2L46.2-2Q46.2-0.85 46 0L46 0 42 0Q41.8-0.85 41.8-2L41.8-2Q41.8-3.2 42-4L42-4Q41.8-4.85 41.8-6L41.8-6Q41.8-7.2 42-8L42-8Q41.8-8.85 41.8-10L41.8-10Q41.8-11.2 42-12L42-12Q41.8-12.85 41.8-14L41.8-14Q41.8-15.2 42-16L42-16Q41.8-16.85 41.8-18L41.8-18Q41.8-19.2 42-20L42-20Q41.8-20.85 41.8-22L41.8-22Q41.8-23.2 42-24L42-24Q41.8-24.85 41.8-26L41.8-26Q41.8-27.2 42-28L42-28 56-28Q56.2-27.2 56.2-26L56.2-26Q56.2-24.85 56-24L56-24 58-24Q58.2-23.2 58.2-22L58.2-22Q58.2-20.85 58-20L58-20 57-20Q57.2-19.2 57.2-18L57.2-18Q57.2-16.85 57-16L57-16 54-16Q54.2-15.2 54.2-14L54.2-14Q54.2-12.85 54-12L54-12 55-12Q55.2-11.2 55.2-10L55.2-10Q55.2-8.85 55-8L55-8 56.5-8Q56.7-7.2 56.7-6L56.7-6Q56.7-4.85 56.5-4L56.5-4ZM53-16Q52.8-16.85 52.8-18L52.8-18Q52.8-19.2 53-20L53-20Q52.8-20.85 52.8-22L52.8-22Q52.8-23.2 53-24L53-24 46-24Q46.2-23.2 46.2-22L46.2-22Q46.2-20.85 46-20L46-20Q46.2-19.2 46.2-18L46.2-18Q46.2-16.85 46-16L46-16 53-16ZM75.99-12L67.99-12Q68.19-11.2 68.19-10L68.19-10Q68.19-8.85 67.99-8L67.99-8Q68.19-7.2 68.19-6L68.19-6Q68.19-4.85 67.99-4L67.99-4 75.99-4Q76.19-3.2 76.19-2L76.19-2Q76.19-0.85 75.99 0L75.99 0 63.99 0Q63.79-0.85 63.79-2L63.79-2Q63.79-3.2 63.99-4L63.99-4Q63.79-4.85 63.79-6L63.79-6Q63.79-7.2 63.99-8L63.99-8Q63.79-8.85 63.79-10L63.79-10Q63.79-11.2 63.99-12L63.99-12Q63.79-12.85 63.79-14L63.79-14Q63.79-15.2 63.99-16L63.99-16Q63.79-16.85 63.79-18L63.79-18Q63.79-19.2 63.99-20L63.99-20Q63.79-20.85 63.79-22L63.79-22Q63.79-23.2 63.99-24L63.99-24Q63.79-24.85 63.79-26L63.79-26Q63.79-27.2 63.99-28L63.99-28 75.99-28Q76.19-27.2 76.19-26L76.19-26Q76.19-24.85 75.99-24L75.99-24 67.99-24Q68.19-23.2 68.19-22L68.19-22Q68.19-20.85 67.99-20L67.99-20Q68.19-19.2 68.19-18L68.19-18Q68.19-16.85 67.99-16L67.99-16 75.99-16Q76.19-15.2 76.19-14L76.19-14Q76.19-12.85 75.99-12L75.99-12ZM98.19-6Q98.19-4.85 97.99-4L97.99-4Q98.19-3.2 98.19-2L98.19-2Q98.19-0.85 97.99 0L97.99 0 93.99 0Q93.79-0.85 93.79-2L93.79-2Q93.79-3.2 93.99-4L93.99-4Q93.79-4.85 93.79-6L93.79-6Q93.79-7.2 93.99-8L93.99-8 85.99-8Q86.19-7.2 86.19-6L86.19-6Q86.19-4.85 85.99-4L85.99-4Q86.19-3.2 86.19-2L86.19-2Q86.19-0.85 85.99 0L85.99 0 81.99 0Q81.79-0.85 81.79-2L81.79-2Q81.79-3.2 81.99-4L81.99-4Q81.79-4.85 81.79-6L81.79-6Q81.79-7.2 81.99-8L81.99-8 83.49-8Q83.29-8.85 83.29-10L83.29-10Q83.29-11.2 83.49-12L83.49-12Q83.29-12.85 83.29-14L83.29-14Q83.29-15.2 83.49-16L83.49-16 84.49-16Q84.29-16.85 84.29-18L84.29-18Q84.29-19.2 84.49-20L84.49-20 85.99-20Q85.79-20.85 85.79-22L85.79-22Q85.79-23.2 85.99-24L85.99-24 86.99-24Q86.79-24.85 86.79-26L86.79-26Q86.79-27.2 86.99-28L86.99-28 92.99-28Q93.19-27.2 93.19-26L93.19-26Q93.19-24.85 92.99-24L92.99-24 93.99-24Q94.19-23.2 94.19-22L94.19-22Q94.19-20.85 93.99-20L93.99-20 95.49-20Q95.69-19.2 95.69-18L95.69-18Q95.69-16.85 95.49-16L95.49-16 96.49-16Q96.69-15.2 96.69-14L96.69-14Q96.69-12.85 96.49-12L96.49-12Q96.69-11.2 96.69-10L96.69-10Q96.69-8.85 96.49-8L96.49-8 97.99-8Q98.19-7.2 98.19-6L98.19-6ZM92.49-12Q92.29-12.85 92.29-14L92.29-14Q92.29-15.2 92.49-16L92.49-16 91.49-16Q91.29-16.85 91.29-18L91.29-18Q91.29-19.2 91.49-20L91.49-20 88.49-20Q88.69-19.2 88.69-18L88.69-18Q88.69-16.85 88.49-16L88.49-16 87.49-16Q87.69-15.2 87.69-14L87.69-14Q87.69-12.85 87.49-12L87.49-12 92.49-12ZM117.99-16Q118.19-15.2 118.19-14L118.19-14Q118.19-12.85 117.99-12L117.99-12Q118.19-11.2 118.19-10L118.19-10Q118.19-8.85 117.99-8L117.99-8 115.99-8Q116.19-7.2 116.19-6L116.19-6Q116.19-4.85 115.99-4L115.99-4 113.99-4Q114.19-3.2 114.19-2L114.19-2Q114.19-0.85 113.99 0L113.99 0 101.99 0Q101.79-0.85 101.79-2L101.79-2Q101.79-3.2 101.99-4L101.99-4Q101.79-4.85 101.79-6L101.79-6Q101.79-7.2 101.99-8L101.99-8Q101.79-8.85 101.79-10L101.79-10Q101.79-11.2 101.99-12L101.99-12Q101.79-12.85 101.79-14L101.79-14Q101.79-15.2 101.99-16L101.99-16Q101.79-16.85 101.79-18L101.79-18Q101.79-19.2 101.99-20L101.99-20Q101.79-20.85 101.79-22L101.79-22Q101.79-23.2 101.99-24L101.99-24Q101.79-24.85 101.79-26L101.79-26Q101.79-27.2 101.99-28L101.99-28 113.99-28Q114.19-27.2 114.19-26L114.19-26Q114.19-24.85 113.99-24L113.99-24 115.99-24Q116.19-23.2 116.19-22L116.19-22Q116.19-20.85 115.99-20L115.99-20 117.99-20Q118.19-19.2 118.19-18L118.19-18Q118.19-16.85 117.99-16L117.99-16ZM113.99-8Q113.79-8.85 113.79-10L113.79-10Q113.79-11.2 113.99-12L113.99-12Q113.79-12.85 113.79-14L113.79-14Q113.79-15.2 113.99-16L113.99-16Q113.79-16.85 113.79-18L113.79-18Q113.79-19.2 113.99-20L113.99-20 111.99-20Q111.79-20.85 111.79-22L111.79-22Q111.79-23.2 111.99-24L111.99-24 105.99-24Q106.19-23.2 106.19-22L106.19-22Q106.19-20.85 105.99-20L105.99-20Q106.19-19.2 106.19-18L106.19-18Q106.19-16.85 105.99-16L105.99-16Q106.19-15.2 106.19-14L106.19-14Q106.19-12.85 105.99-12L105.99-12Q106.19-11.2 106.19-10L106.19-10Q106.19-8.85 105.99-8L105.99-8Q106.19-7.2 106.19-6L106.19-6Q106.19-4.85 105.99-4L105.99-4 111.99-4Q111.79-4.85 111.79-6L111.79-6Q111.79-7.2 111.99-8L111.99-8 113.99-8ZM137.99-16Q138.19-15.2 138.19-14L138.19-14Q138.19-12.85 137.99-12L137.99-12Q138.19-11.2 138.19-10L138.19-10Q138.19-8.85 137.99-8L137.99-8 135.99-8Q136.19-7.2 136.19-6L136.19-6Q136.19-4.85 135.99-4L135.99-4 133.99-4Q134.19-3.2 134.19-2L134.19-2Q134.19-0.85 133.99 0L133.99 0 121.99 0Q121.79-0.85 121.79-2L121.79-2Q121.79-3.2 121.99-4L121.99-4Q121.79-4.85 121.79-6L121.79-6Q121.79-7.2 121.99-8L121.99-8Q121.79-8.85 121.79-10L121.79-10Q121.79-11.2 121.99-12L121.99-12Q121.79-12.85 121.79-14L121.79-14Q121.79-15.2 121.99-16L121.99-16Q121.79-16.85 121.79-18L121.79-18Q121.79-19.2 121.99-20L121.99-20Q121.79-20.85 121.79-22L121.79-22Q121.79-23.2 121.99-24L121.99-24Q121.79-24.85 121.79-26L121.79-26Q121.79-27.2 121.99-28L121.99-28 133.99-28Q134.19-27.2 134.19-26L134.19-26Q134.19-24.85 133.99-24L133.99-24 135.99-24Q136.19-23.2 136.19-22L136.19-22Q136.19-20.85 135.99-20L135.99-20 137.99-20Q138.19-19.2 138.19-18L138.19-18Q138.19-16.85 137.99-16L137.99-16ZM133.99-8Q133.79-8.85 133.79-10L133.79-10Q133.79-11.2 133.99-12L133.99-12Q133.79-12.85 133.79-14L133.79-14Q133.79-15.2 133.99-16L133.99-16Q133.79-16.85 133.79-18L133.79-18Q133.79-19.2 133.99-20L133.99-20 131.99-20Q131.79-20.85 131.79-22L131.79-22Q131.79-23.2 131.99-24L131.99-24 125.99-24Q126.19-23.2 126.19-22L126.19-22Q126.19-20.85 125.99-20L125.99-20Q126.19-19.2 126.19-18L126.19-18Q126.19-16.85 125.99-16L125.99-16Q126.19-15.2 126.19-14L126.19-14Q126.19-12.85 125.99-12L125.99-12Q126.19-11.2 126.19-10L126.19-10Q126.19-8.85 125.99-8L125.99-8Q126.19-7.2 126.19-6L126.19-6Q126.19-4.85 125.99-4L125.99-4 131.99-4Q131.79-4.85 131.79-6L131.79-6Q131.79-7.2 131.99-8L131.99-8 133.99-8ZM151.98-4L154.98-4Q155.18-3.2 155.18-2L155.18-2Q155.18-0.85 154.98 0L154.98 0 144.98 0Q144.78-0.85 144.78-2L144.78-2Q144.78-3.2 144.98-4L144.98-4 147.98-4Q147.78-4.85 147.78-6L147.78-6Q147.78-7.2 147.98-8L147.98-8Q147.78-8.85 147.78-10L147.78-10Q147.78-11.2 147.98-12L147.98-12Q147.78-12.85 147.78-14L147.78-14Q147.78-15.2 147.98-16L147.98-16Q147.78-16.85 147.78-18L147.78-18Q147.78-19.2 147.98-20L147.98-20Q147.78-20.85 147.78-22L147.78-22Q147.78-23.2 147.98-24L147.98-24 144.98-24Q144.78-24.85 144.78-26L144.78-26Q144.78-27.2 144.98-28L144.98-28 154.98-28Q155.18-27.2 155.18-26L155.18-26Q155.18-24.85 154.98-24L154.98-24 151.98-24Q152.18-23.2 152.18-22L152.18-22Q152.18-20.85 151.98-20L151.98-20Q152.18-19.2 152.18-18L152.18-18Q152.18-16.85 151.98-16L151.98-16Q152.18-15.2 152.18-14L152.18-14Q152.18-12.85 151.98-12L151.98-12Q152.18-11.2 152.18-10L152.18-10Q152.18-8.85 151.98-8L151.98-8Q152.18-7.2 152.18-6L152.18-6Q152.18-4.85 151.98-4L151.98-4ZM178.18-26Q178.18-24.85 177.98-24L177.98-24 171.98-24Q172.18-23.2 172.18-22L172.18-22Q172.18-20.85 171.98-20L171.98-20Q172.18-19.2 172.18-18L172.18-18Q172.18-16.85 171.98-16L171.98-16Q172.18-15.2 172.18-14L172.18-14Q172.18-12.85 171.98-12L171.98-12Q172.18-11.2 172.18-10L172.18-10Q172.18-8.85 171.98-8L171.98-8Q172.18-7.2 172.18-6L172.18-6Q172.18-4.85 171.98-4L171.98-4Q172.18-3.2 172.18-2L172.18-2Q172.18-0.85 171.98 0L171.98 0 167.98 0Q167.78-0.85 167.78-2L167.78-2Q167.78-3.2 167.98-4L167.98-4Q167.78-4.85 167.78-6L167.78-6Q167.78-7.2 167.98-8L167.98-8Q167.78-8.85 167.78-10L167.78-10Q167.78-11.2 167.98-12L167.98-12Q167.78-12.85 167.78-14L167.78-14Q167.78-15.2 167.98-16L167.98-16Q167.78-16.85 167.78-18L167.78-18Q167.78-19.2 167.98-20L167.98-20Q167.78-20.85 167.78-22L167.78-22Q167.78-23.2 167.98-24L167.98-24 161.98-24Q161.78-24.85 161.78-26L161.78-26Q161.78-27.2 161.98-28L161.98-28 177.98-28Q178.18-27.2 178.18-26L178.18-26Z" opacity="1" transform="matrix(1,0,0,1,0,0)" fill="#0068e0" class="wordmark-text-0" data-fill-palette-color="primary" id="text-0"></path></svg></g></svg></g></svg></g></svg></g></svg></g></svg></g><path d="M182.641 98.201L182.641 35.654 6.749 35.654 6.749 211.546 182.641 211.546 182.641 148.999 179.142 148.999 179.142 208.047 10.248 208.047 10.248 39.153 179.142 39.153 179.142 98.201Z" fill="#0075ff" stroke="transparent" data-fill-palette-color="tertiary"></path></svg></g><defs></defs></svg><rect width="395.52" height="247.2" fill="none" stroke="none" visibility="hidden"></rect></g></svg></g></svg>